<svg width="151" height="63" viewBox="0 0 151 63" fill="none" xmlns="http://www.w3.org/2000/svg">
<g clip-path="url(#clip0_1_221)">
<g clip-path="url(#clip1_1_221)">
<path d="M52.8871 22.9886C52.7705 26.6267 54.6043 28.2378 54.6496 29.2609C54.628 29.4692 54.5565 29.6693 54.4409 29.8445C54.3254 30.0197 54.1692 30.1649 53.9855 30.268L51.9119 31.7072C51.6436 31.8937 51.3273 32.0007 50.9999 32.0156C50.9303 32.0124 49.6732 32.3095 47.6823 27.9021C46.4676 29.4054 44.9222 30.6133 43.1642 31.4332C41.4062 32.2531 39.4823 32.6633 37.5398 32.6324C34.9026 32.7753 27.7554 31.1482 28.1231 23.6038C27.8656 17.4552 33.6407 13.6356 39.6134 13.9585C40.7635 13.9617 43.1124 14.0179 47.2255 14.9656V12.4567C47.6612 8.20662 44.8441 4.90905 39.9665 5.40377C39.5777 5.40537 36.8238 5.32346 32.5407 7.02765C31.3484 7.57055 31.1962 7.48061 30.7993 7.48061C29.5989 7.48061 30.093 4.03045 30.323 3.59356C31.167 2.56558 36.1321 0.64615 41.0049 0.673455C44.263 0.387753 47.5036 1.38477 50.0263 3.449C51.0518 4.58633 51.8341 5.91795 52.3261 7.36344C52.8181 8.80892 53.0095 10.3383 52.8888 11.8592L52.8871 22.9886ZM38.8876 28.1912C44.1411 28.1157 46.3653 24.9836 46.8723 23.297C47.2708 21.6828 47.2044 20.6612 47.2044 18.896C45.6379 18.5234 43.383 18.117 40.7959 18.1138C38.3417 17.9307 33.8593 19.0181 34.0343 23.2954C33.8334 25.9923 35.8357 28.3389 38.8876 28.1912ZM66.5756 31.8935C65.3023 32.0092 64.7094 31.1129 64.5215 30.2279L56.4542 3.78149C56.2971 3.33496 56.1934 2.87397 56.1432 2.40335C56.1135 2.20933 56.1626 2.01152 56.2798 1.8534C56.3971 1.69528 56.5729 1.58979 56.7685 1.56009C56.8074 1.55366 56.4235 1.56009 60.3729 1.56009C61.7952 1.41874 62.2585 2.52864 62.4059 3.22574L68.1923 25.8461L73.564 3.22574C73.6499 2.70853 74.0403 1.44765 75.6375 1.58097H78.4174C78.7689 1.55206 80.2171 1.50066 80.4714 3.24662L85.8853 26.1561L91.858 3.24662C91.9357 2.89646 92.2986 1.42035 93.9121 1.58097H97.1066C97.2443 1.56009 98.1028 1.45086 97.957 2.9591C97.8874 3.25625 98.5094 1.24688 89.4119 30.2487C89.2256 31.1338 88.6311 32.03 87.3578 31.9144H84.3301C82.5579 32.0991 82.3036 30.3628 82.276 30.1877L76.9043 8.16164L71.5942 30.1652C71.5683 30.3403 71.3139 32.0766 69.5401 31.8919H66.5756V31.8935ZM110.878 32.7978C109.925 32.7994 105.383 32.7496 101.586 30.8238C101.207 30.665 100.885 30.3984 100.66 30.0578C100.435 29.7172 100.317 29.318 100.321 28.9108V27.1841C100.321 25.8268 101.325 26.0758 101.751 26.238C103.377 26.8901 104.421 27.3849 106.418 27.78C112.355 28.9895 114.966 27.4106 115.606 27.0604C117.736 25.8059 117.905 22.9356 116.457 21.4467C114.759 20.0348 113.949 19.9818 107.85 18.0736C107.098 17.8664 100.771 15.8875 100.756 9.66346C100.657 5.1275 104.814 0.639724 112.018 0.676667C114.071 0.675061 119.539 1.34004 121.02 3.18558C121.239 3.52128 121.347 3.91641 121.331 4.31636V5.94024C121.331 6.6534 121.069 7.00998 120.542 7.00998C119.293 6.87185 117.077 5.21584 112.579 5.2833C111.462 5.22548 106.117 5.42947 106.356 9.29403C106.287 12.3394 110.667 13.4814 111.168 13.6131C117.074 15.3752 119.049 15.6675 121.393 18.3643C124.169 21.9382 122.672 26.1224 122.097 27.2692C119.007 33.2909 111.014 32.801 110.878 32.7978ZM117.39 49.6406C106.045 57.948 89.5771 62.3699 75.516 62.3699C56.5434 62.4939 38.2102 55.5767 24.1203 42.978C23.0625 42.032 23.9955 40.7357 25.2818 41.4569C40.9117 50.3219 58.608 54.9798 76.6144 54.9684C90.061 54.8969 103.361 52.1922 115.75 47.0096C117.659 46.2065 119.277 48.2625 117.39 49.6406ZM122.118 44.2935C120.667 42.4431 112.515 43.4294 108.866 43.8614C107.766 43.9851 107.579 43.0391 108.576 42.3403C115.067 37.8156 125.728 39.1118 126.952 40.6329C128.175 42.154 126.62 52.7454 120.544 57.805C119.611 58.5872 118.718 58.1744 119.133 57.1465C120.5 53.7333 123.57 46.1455 122.118 44.2935Z" fill="#737373"/>
</g>
</g>
<defs>
<clipPath id="clip0_1_221">
<rect width="151" height="62" fill="white" transform="translate(0 0.5)"/>
</clipPath>
<clipPath id="clip1_1_221">
<rect width="104" height="62" fill="white" transform="translate(23.5 0.5)"/>
</clipPath>
</defs>
</svg>
